# File created by Blade
# Date/Time:  Wed Jan 21 18:40:15 2015
#---------------------------------------------------------
:version 1.10
:name HOM
:units
  mass 1.0
  length 1.000000
  angle deg
:documentation
     Acclaim Skeleton File
:root
   axis xyz
   order TX TY TZ RX RY RZ
   position 0.000000 0.000000 0.000000
   orientation 0 0 0
:bonedata
   begin
      id 1
      name RightUpLeg_dum
      direction -1.000000 0.000000 0.000000
      length 3.693983
      axis 0.0 0.0 0.0 xyz
   end
   begin
      id 2
      name LeftUpLeg_dum
      direction 1.000000 0.000000 0.000000
      length 3.693983
      axis 0.0 0.0 0.0 xyz
   end
   begin
      id 3
      name Spine_dum
      direction 0.000000 1.000000 0.000000
      length 2.392956
      axis 0.0 0.0 0.0 xyz
   end
   begin
      id 4
      name RightUpLeg
      direction 0.000000 -1.000000 0.000000
      length 15.795667
      axis 0.0 0.0 0.0 xyz
      dof rx ry rz
   end
   begin
      id 5
      name RightLeg
      direction 0.000000 -1.000000 0.000000
      length 14.766989
      axis 0.0 0.0 0.0 xyz
      dof rx ry rz
   end
   begin
      id 6
      name RightFoot
      direction 0.000000 -0.258819 0.965926
      length 4.962790
      axis 15.0 0.0 0.0 xyz
      dof rx ry rz
   end
   begin
      id 7
      name RightToeBase
      direction 0.000000 0.000000 1.000000
      length 2.952750
      axis 0.0 0.0 0.0 xyz
      dof rx ry rz
   end
   begin
      id 8
      name LeftUpLeg
      direction 0.000000 -1.000000 0.000000
      length 15.795667
      axis 0.0 0.0 0.0 xyz
      dof rx ry rz
   end
   begin
      id 9
      name LeftLeg
      direction 0.000000 -1.000000 0.000000
      length 14.766989
      axis 0.0 0.0 0.0 xyz
      dof rx ry rz
   end
   begin
      id 10
      name LeftFoot
      direction 0.000000 -0.258819 0.965926
      length 4.962790
      axis 15.0 0.0 0.0 xyz
      dof rx ry rz
   end
   begin
      id 11
      name LeftToeBase
      direction 0.000000 0.000000 1.000000
      length 2.952750
      axis 0.0 0.0 0.0 xyz
      dof rx ry rz
   end
   begin
      id 12
      name Spine
      direction 0.000000 1.000000 0.000000
      length 0.000000
      axis 0.0 0.0 0.0 xyz
      dof rx ry rz
   end
   begin
      id 13
      name Spine_dum1
      direction 0.000000 1.000000 0.000000
      length 13.207411
      axis 0.0 0.0 0.0 xyz
   end
   begin
      id 14
      name Spine_dum2
      direction 0.000000 1.000000 0.000000
      length 13.207411
      axis 0.0 0.0 0.0 xyz
   end
   begin
      id 15
      name Spine_dum3
      direction 0.000000 1.000000 0.000000
      length 19.250100
      axis 0.0 0.0 0.0 xyz
   end
   begin
      id 16
      name RightShoulder
      direction -1.000000 0.000000 0.000000
      length 8.140465
      axis 0.0 0.0 90.0 xyz
      dof rx ry rz
   end
   begin
      id 17
      name RightArm
      direction -1.000000 0.000000 0.000000
      length 10.649840
      axis 0.0 0.0 90.0 xyz
      dof rx ry rz
   end
   begin
      id 18
      name RightForeArm
      direction -1.000000 0.000000 0.000000
      length 8.304624
      axis 0.0 0.0 90.0 xyz
      dof ry rz rx
   end
   begin
      id 19
      name RightHand
      direction -1.000000 0.000000 0.000000
      length 0.000000
      axis 0.0 0.0 90.0 xyz
      dof rx ry rz
   end
   begin
      id 20
      name RightHand_dum1
      direction -1.000000 0.000000 0.000000
      length 3.937000
      axis 0.0 0.0 90.0 xyz
   end
   begin
      id 21
      name RightHand_dum2
      direction 0.000000 0.000000 0.000000
      length 0.000000
      axis 0.0 0.0 90.0 xyz
   end
   begin
      id 22
      name RightHandThumb1
      direction 0.000000 0.000000 1.000000
      length 3.937000
      axis 0.0 0.0 90.0 xyz
      dof rx rz ry
   end
   begin
      id 23
      name LeftShoulder
      direction 1.000000 0.000000 0.000000
      length 8.140465
      axis 0.0 0.0 -90.0 xyz
      dof rx ry rz
   end
   begin
      id 24
      name LeftArm
      direction 1.000000 0.000000 0.000000
      length 10.649840
      axis 0.0 0.0 -90.0 xyz
      dof rx ry rz
   end
   begin
      id 25
      name LeftForeArm
      direction 1.000000 0.000000 0.000000
      length 8.304624
      axis 0.0 0.0 -90.0 xyz
      dof ry rz rx
   end
   begin
      id 26
      name LeftHand
      direction 1.000000 0.000000 0.000000
      length 0.000000
      axis 0.0 0.0 -90.0 xyz
      dof rx ry rz
   end
   begin
      id 27
      name LeftHand_dum1
      direction 1.000000 0.000000 0.000000
      length 3.937000
      axis 0.0 0.0 -90.0 xyz
   end
   begin
      id 28
      name LeftHand_dum2
      direction 0.000000 0.000000 0.000000
      length 0.000000
      axis 0.0 0.0 -90.0 xyz
   end
   begin
      id 29
      name LeftHandThumb1
      direction 0.000000 0.000000 1.000000
      length 3.937000
      axis 0.0 0.0 -90.0 xyz
      dof rx rz ry
   end
   begin
      id 30
      name Head
      direction 0.000000 1.000000 0.000000
      length 4.527550
      axis 0.0 0.0 0.0 xyz
      dof rx ry rz
   end
:hierarchy
   begin
      root RightUpLeg_dum LeftUpLeg_dum Spine_dum
      RightUpLeg_dum RightUpLeg
      LeftUpLeg_dum LeftUpLeg
      Spine_dum Spine
      RightUpLeg RightLeg
      RightLeg RightFoot
      RightFoot RightToeBase
      LeftUpLeg LeftLeg
      LeftLeg LeftFoot
      LeftFoot LeftToeBase
      Spine Spine_dum1 Spine_dum2 Spine_dum3
      Spine_dum1 RightShoulder
      Spine_dum2 LeftShoulder
      Spine_dum3 Head
      RightShoulder RightArm
      RightArm RightForeArm
      RightForeArm RightHand
      RightHand RightHand_dum1 RightHand_dum2
      RightHand_dum2 RightHandThumb1
      LeftShoulder LeftArm
      LeftArm LeftForeArm
      LeftForeArm LeftHand
      LeftHand LeftHand_dum1 LeftHand_dum2
      LeftHand_dum2 LeftHandThumb1
   end

# File created by Blade
# Date/Time:  Wed Jan 21 18:40:08 2015
# Frame Rate: 120.000 fps
#------------------------------------------------------
:FULLY-SPECIFIED
:DEGREES
415
root 0.003917 29.661715 -6.053918 47.860324 4.350334 4.526619
RightUpLeg -43.725896 -40.258309 -1.578582
RightLeg -6.405896 -0.000000 0.000000
RightFoot 1.576020 1.372076 43.148083
RightToeBase 18.264687 -0.000000 -0.000000
LeftUpLeg -48.248952 23.585396 2.838791
LeftLeg -1.004689 -0.000000 0.000000
LeftFoot 0.414255 -1.790390 -20.863955
LeftToeBase 8.474802 -0.000000 -0.000000
Spine -44.178624 1.869124 0.599293
RightShoulder -18.625256 15.352463 -42.506652
RightArm 1.633946 -11.928612 45.933648
RightForeArm 6.736688 -0.000000 -3.878162
RightHand 9.692915 -0.000000 4.518296
RightHandThumb1 -24.326973 -0.000000 -32.862282
LeftShoulder -12.087353 4.803735 40.791497
LeftArm 17.739990 -14.081877 -47.577093
LeftForeArm 15.157482 -0.000000 -3.978511
LeftHand -21.351734 -0.000000 -1.603195
LeftHandThumb1 -26.253704 0.000000 33.147579
Head 1.068083 -7.505248 13.100582
416
root 0.004343 29.660769 -6.076940 47.906561 4.327417 4.553035
RightUpLeg -43.825935 -40.268292 -1.550945
RightLeg -6.438125 -0.000000 0.000000
RightFoot 1.608254 1.383759 43.124135
RightToeBase 18.299042 -0.000000 -0.000000
LeftUpLeg -48.332682 23.545666 2.807349
LeftLeg -0.980455 -0.000000 0.000000
LeftFoot 0.445597 -1.749101 -20.680800
LeftToeBase 8.281688 -0.000000 -0.000000
Spine -44.138810 1.933638 0.652014
RightShoulder -18.627239 15.329096 -42.458451
RightArm 1.675203 -11.860876 46.011799
RightForeArm 6.801808 -0.000000 -3.827417
RightHand 9.633364 -0.000000 4.595817
RightHandThumb1 -24.326973 -0.000000 -32.862282
LeftShoulder -12.052321 4.838314 40.768369
LeftArm 17.696118 -14.047196 -47.677221
LeftForeArm 15.095363 0.000000 -3.966105
LeftHand -21.346826 -0.000000 -1.618026
LeftHandThumb1 -26.253704 0.000000 33.147579
Head 0.981627 -7.536415 13.265190
417
root 0.005233 29.660359 -6.101957 47.977170 4.318303 4.580889
RightUpLeg -43.956840 -40.265223 -1.521487
RightLeg -6.437889 -0.000000 0.000000
RightFoot 1.602669 1.369278 43.112704
RightToeBase 18.336650 -0.000000 -0.000000
LeftUpLeg -48.467769 23.514357 2.753645
LeftLeg -0.943068 -0.000000 0.000000
LeftFoot 0.456575 -1.742965 -20.670922
LeftToeBase 8.323226 -0.000000 -0.000000
Spine -44.116601 1.969009 0.715085
RightShoulder -18.644027 15.381874 -42.388899
RightArm 1.712785 -11.882607 46.039173
RightForeArm 6.870789 -0.000000 -3.809527
RightHand 9.625894 -0.000000 4.634492
RightHandThumb1 -24.326973 -0.000000 -32.862282
LeftShoulder -12.059425 4.896902 40.763657
LeftArm 17.738271 -14.057393 -47.834856
LeftForeArm 15.135554 -0.000000 -3.997521
LeftHand -21.288647 -0.000000 -1.616943
LeftHandThumb1 -26.253704 0.000000 33.147579
Head 0.901787 -7.559618 13.477468
418
root 0.004229 29.659988 -6.123093 48.015647 4.310221 4.590443
RightUpLeg -44.046706 -40.254659 -1.486197
RightLeg -6.450210 -0.000000 0.000000
RightFoot 1.602192 1.358037 43.142810
RightToeBase 18.392796 -0.000000 -0.000000
LeftUpLeg -48.579037 23.537502 2.683933
LeftLeg -0.907747 -0.000000 0.000000
LeftFoot 0.490614 -1.788475 -20.632788
LeftToeBase 8.287789 -0.000000 -0.000000
Spine -44.074061 2.022447 0.779975
RightShoulder -18.660268 15.365050 -42.313110
RightArm 1.757354 -11.850011 46.073462
RightForeArm 6.885017 -0.000000 -3.770134
RightHand 9.679744 -0.000000 4.587414
RightHandThumb1 -24.326973 -0.000000 -32.862282
LeftShoulder -12.046224 4.902227 40.752593
LeftArm 17.751349 -14.109824 -47.991670
LeftForeArm 15.209413 -0.000000 -3.992803
LeftHand -21.301145 -0.000000 -1.550591
LeftHandThumb1 -26.253704 0.000000 33.147579
Head 0.829405 -7.664243 13.670518
419
root 0.005136 29.660377 -6.145039 48.069717 4.314722 4.608051
RightUpLeg -44.175554 -40.272784 -1.424005
RightLeg -6.436126 -0.000000 0.000000
RightFoot 1.613968 1.361619 43.048165
RightToeBase 18.360956 -0.000000 -0.000000
LeftUpLeg -48.703388 23.534089 2.611402
LeftLeg -0.884087 -0.000000 0.000000
LeftFoot 0.530875 -1.797182 -20.504773
LeftToeBase 8.229442 -0.000000 -0.000000
Spine -44.044272 2.049973 0.866524
RightShoulder -18.670315 15.420274 -42.272690
RightArm 1.743874 -11.929564 46.123538
RightForeArm 6.957728 -0.000000 -3.738489
RightHand 9.774620 -0.000000 4.531437
RightHandThumb1 -24.326973 -0.000000 -32.862282
LeftShoulder -12.043106 4.869831 40.738015
LeftArm 17.720875 -14.020090 -48.097998
LeftForeArm 15.179749 0.000000 -3.990902
LeftHand -21.354111 -0.000000 -1.442311
LeftHandThumb1 -26.253704 0.000000 33.147579
Head 0.761232 -7.683570 13.852726
420
root 0.006108 29.661115 -6.167234 48.126081 4.325236 4.627995
RightUpLeg -44.328140 -40.315874 -1.328847
RightLeg -6.419525 -0.000000 0.000000
RightFoot 1.645644 1.389237 43.017839
RightToeBase 18.329878 -0.000000 -0.000000
LeftUpLeg -48.811286 23.503632 2.560197
LeftLeg -0.880081 -0.000000 0.000000
LeftFoot 0.543402 -1.782294 -20.446176
LeftToeBase 8.227961 -0.000000 -0.000000
Spine -44.013931 2.062546 0.949385
RightShoulder -18.685861 15.411321 -42.189514
RightArm 1.800006 -11.923706 46.136419
RightForeArm 6.967591 -0.000000 -3.716114
RightHand 9.790669 -0.000000 4.511016
RightHandThumb1 -24.326973 -0.000000 -32.862282
LeftShoulder -12.030221 4.872345 40.744358
LeftArm 17.676946 -13.985127 -48.248893
LeftForeArm 15.220402 -0.000000 -3.921347
LeftHand -21.211143 -0.000000 -1.434421
LeftHandThumb1 -26.253704 0.000000 33.147579
Head 0.687208 -7.723810 14.052198
421
root 0.009018 29.662365 -6.185047 48.163767 4.329818 4.658014
RightUpLeg -44.453814 -40.378106 -1.250944
RightLeg -6.409224 -0.000000 0.000000
RightFoot 1.671267 1.443591 43.049061
RightToeBase 18.414164 -0.000000 -0.000000
LeftUpLeg -48.919741 23.523533 2.440652
LeftLeg -0.873888 -0.000000 0.000000
LeftFoot 0.590997 -1.846632 -20.355289
LeftToeBase 8.244938 -0.000000 -0.000000
Spine -43.977082 2.088085 1.007307
RightShoulder -18.726143 15.300126 -42.097379
RightArm 1.911631 -11.946593 46.149606
RightForeArm 6.903970 0.000000 -3.667778
RightHand 9.807726 -0.000000 4.287237
RightHandThumb1 -24.326973 -0.000000 -32.862282
LeftShoulder -11.962464 4.853998 40.763504
LeftArm 17.625171 -13.954228 -48.416834
LeftForeArm 15.238917 -0.000000 -3.897037
LeftHand -21.172292 -0.000000 -1.351127
LeftHandThumb1 -26.253704 0.000000 33.147579
Head 0.632236 -7.812280 14.268700
422
root 0.011370 29.663867 -6.206461 48.244860 4.285205 4.680461
RightUpLeg -44.620797 -40.351634 -1.221822
RightLeg -6.378642 -0.000000 0.000000
RightFoot 1.690752 1.401413 42.915284
RightToeBase 18.310929 -0.000000 -0.000000
LeftUpLeg -49.077892 23.598743 2.246870
LeftLeg -0.884947 -0.000000 0.000000
LeftFoot 0.663889 -1.916791 -20.232065
LeftToeBase 8.223861 -0.000000 -0.000000
Spine -43.971471 2.125893 1.047592
RightShoulder -18.739616 15.341701 -42.066896
RightArm 1.867218 -12.081910 46.207138
RightForeArm 6.863914 -0.000000 -3.607434
RightHand 9.810413 -0.000000 4.103808
RightHandThumb1 -24.326973 -0.000000 -32.862282
LeftShoulder -11.930046 4.837257 40.760261
LeftArm 17.624655 -13.808847 -48.508725
LeftForeArm 15.120503 -0.000000 -3.974280
LeftHand -21.055717 -0.000000 -1.363331
LeftHandThumb1 -26.253704 0.000000 33.147579
Head 0.563635 -7.871495 14.443663
423
root 0.013463 29.666213 -6.226760 48.306995 4.255268 4.706811
RightUpLeg -44.724030 -40.306690 -1.247712
RightLeg -6.353889 -0.000000 0.000000
RightFoot 1.660615 1.374605 42.861982
RightToeBase 18.333533 -0.000000 -0.000000
LeftUpLeg -49.180621 23.603571 2.142863
LeftLeg -0.899303 -0.000000 0.000000
LeftFoot 0.697271 -1.912246 -20.131079
LeftToeBase 8.281670 -0.000000 -0.000000
Spine -43.948918 2.126399 1.116535
RightShoulder -18.729017 15.330604 -42.019608
RightArm 1.861887 -11.952941 46.259153
RightForeArm 6.659678 -0.000000 -3.539133
RightHand 9.809454 -0.000000 4.072336
RightHandThumb1 -24.326973 -0.000000 -32.862282
LeftShoulder -11.902115 4.817897 40.753860
LeftArm 17.576910 -13.919351 -48.673728
LeftForeArm 15.271704 -0.000000 -3.955682
LeftHand -21.013710 -0.000000 -1.341860
LeftHandThumb1 -26.253704 0.000000 33.147579
Head 0.508828 -7.881609 14.631386
424
root 0.015596 29.667688 -6.244991 48.358484 4.220071 4.732311
RightUpLeg -44.827921 -40.288825 -1.250723
RightLeg -6.344304 -0.000000 0.000000
RightFoot 1.655434 1.364468 42.832696
RightToeBase 18.334160 -0.000000 -0.000000
LeftUpLeg -49.264899 23.616459 2.037973
LeftLeg -0.918691 -0.000000 0.000000
LeftFoot 0.738312 -1.934450 -20.045536
LeftToeBase 8.268295 -0.000000 -0.000000
Spine -43.913030 2.104035 1.195296
RightShoulder -18.737007 15.372308 -41.971012
RightArm 1.882488 -12.048990 46.291972
RightForeArm 6.686292 -0.000000 -3.524979
RightHand 9.822995 -0.000000 4.138613
RightHandThumb1 -24.326973 -0.000000 -32.862282
LeftShoulder -11.904688 4.828528 40.762926
LeftArm 17.557602 -13.900095 -48.827223
LeftForeArm 15.186008 -0.000000 -3.927642
LeftHand -21.068901 -0.000000 -1.219748
LeftHandThumb1 -26.253704 0.000000 33.147579
Head 0.441000 -7.933113 14.821037
